<?xml version="1.0" encoding="UTF-8"?>
<svg width="36px" height="44px" viewBox="0 0 36 44" version="1.1" xmlns="http://www.w3.org/2000/svg" xmlns:xlink="http://www.w3.org/1999/xlink">
    <!-- Generator: Sketch 54.1 (76490) - https://sketchapp.com -->
    <title>DNL_LogVertival</title>
    <desc>Created with Sketch.</desc>
    <g id="Page-1" stroke="none" stroke-width="1" fill="none" fill-rule="evenodd">
        <g id="Artboard" fill-rule="nonzero">
            <g id="DNL_LogVertival">
                <g id="Group" transform="translate(0.623357, 0.000000)">
                    <path d="M28.0777678,39.3039475 C28.0777678,39.3162659 28.0777678,39.3162659 28.0777678,39.320372 C27.995645,41.0367375 29.3547765,42.3876567 31.103991,42.3383831 L31.1122033,42.3383831 C31.9868106,42.305534 32.8039319,41.919557 33.403428,41.320061 C33.9947118,40.7287772 34.3847948,39.9116558 34.4135378,39.0370486 C34.4710237,37.2919401 33.1283168,35.9451271 31.4283759,36.002613 C31.4119513,36.002613 31.3955268,36.002613 31.3791022,36.002613 C31.37089,36.002613 31.37089,36.002613 31.37089,36.002613 C31.3544654,36.002613 31.3380409,36.002613 31.3216163,36.0108253 C28.5787165,36.1093726 26.5256478,34.0521977 26.7309547,31.4078452 C26.7309547,31.3914207 26.739167,31.3749961 26.739167,31.3585716 C26.739167,31.3503593 26.739167,31.3339347 26.739167,31.3175102 C26.8500327,29.6586307 25.6222976,28.4514263 23.9962671,28.623884 C22.3538122,28.7963418 20.8714966,30.2745513 20.6949327,31.9170063 C20.5306872,33.551249 21.7378916,34.778984 23.4131956,34.6599061 C23.4214079,34.6599061 23.4214079,34.6599061 23.4296202,34.6599061 C23.4378325,34.6599061 23.454257,34.6599061 23.4624693,34.6599061 C26.1396709,34.450493 28.205058,36.5199863 28.0818739,39.2793107 C28.0777678,39.2916291 28.0777678,39.2998414 28.0777678,39.3039475 Z" id="Path" fill="#939598"></path>
                    <path d="M27.4248919,5.16141475 L27.4331042,5.16141475 L27.4454226,5.16141475 C28.8702523,4.90272809 30.2293838,3.58465798 30.4675397,2.25016331 C30.7098018,0.919774785 29.8105578,0.0656981989 28.4596385,0.332597132 L28.4514263,0.340809407 L28.443214,0.340809407 C27.0922948,0.611814477 25.7331633,1.90114163 25.4169907,3.22742402 C25.1008181,4.55370641 26.0000622,5.42831368 27.4248919,5.16141475 Z" id="Path" fill="#002D62"></path>
                    <path d="M12.5401437,14.7656702 C12.548356,14.7656702 12.548356,14.7656702 12.5565683,14.7656702 C13.26693,14.5726817 13.9896102,14.1210066 14.580894,13.5420412 C15.1721778,12.9589697 15.6320652,12.2568202 15.8250537,11.5546707 C15.8250537,11.5464585 15.8250537,11.5382462 15.8250537,11.5382462 C15.8250537,11.5300339 15.8332659,11.5259278 15.8332659,11.5136094 C16.4163374,9.4235854 18.4694062,7.33766759 20.5347933,6.61909354 C20.6620836,6.57803216 20.7852677,6.53697079 20.9207702,6.50412169 C20.9289825,6.50412169 20.9371948,6.50001555 20.945407,6.50001555 C20.9536193,6.50001555 20.9536193,6.50001555 20.9618316,6.50001555 L20.9700439,6.50001555 C20.9700439,6.48769714 20.9700439,6.48769714 20.9700439,6.48769714 L20.9782561,6.48769714 L20.9864684,6.48769714 L20.9946807,6.48769714 C21.002893,6.48769714 21.002893,6.48769714 21.0111052,6.47948487 C21.0193175,6.47948487 21.0275298,6.47948487 21.0357421,6.47948487 C21.1671385,6.44663577 21.2862164,6.42199894 21.4094006,6.40557439 C23.3598158,6.13867546 24.5957632,7.4813824 24.1933617,9.62068 C24.1851495,9.66174138 24.1605126,9.70690889 24.1481942,9.74797026 C24.1481942,9.76439481 24.139982,9.77260709 24.139982,9.78903164 C24.139982,9.79724391 24.139982,9.81366846 24.139982,9.82188074 C23.6759884,12.0966809 21.3888699,14.3550565 19.0237347,14.8560052 C19.0155224,14.8560052 18.9990979,14.8642175 18.9908856,14.8642175 C18.9826733,14.8642175 18.9826733,14.8642175 18.9826733,14.8642175 L18.9744611,14.8642175 C18.9662488,14.8642175 18.9498242,14.8724298 18.941612,14.8806421 C17.4716148,15.2050269 16.0303605,16.6462811 15.7059757,18.1162783 C15.3898031,19.5944878 16.3629577,20.5758547 17.9068653,20.3007435 C18.674713,20.1570286 19.42203,19.7340965 20.01742,19.1428127 C20.6004915,18.5597412 21.0357421,17.8247426 21.1753507,17.0692133 C21.183563,17.0568949 21.183563,17.0527888 21.183563,17.0527888 C21.183563,17.0445765 21.183563,17.0445765 21.183563,17.0322581 C21.6434504,14.6342738 23.9346751,12.3635798 26.3244471,11.9570722 C26.3326593,11.9488599 26.3408716,11.9488599 26.3490839,11.9488599 C26.3572962,11.9488599 26.3655084,11.9488599 26.3655084,11.9488599 C27.6835786,11.7230224 28.9236321,10.6307898 29.3506704,9.39073631 C29.4327931,9.17311102 29.5067036,8.94727346 29.5436588,8.73375432 C29.7612841,7.30071235 28.8004479,6.34808847 27.3838305,6.5821383 C27.3715121,6.5821383 27.367406,6.5821383 27.3509814,6.5821383 L27.3427692,6.5821383 C27.3345569,6.5821383 27.3345569,6.59035058 27.3263446,6.59035058 C27.3099201,6.59035058 27.3017078,6.59856285 27.2852832,6.59856285 C27.2442219,6.60677513 27.2031605,6.60677513 27.1497807,6.61909354 C24.948891,6.9106293 23.6061841,5.54328553 24.1071329,3.50253523 C24.1153451,3.49432295 24.1153451,3.4778984 24.1235574,3.46968613 C24.1235574,3.46147385 24.1235574,3.4450493 24.1235574,3.43683703 C24.3904563,2.31996765 23.8155971,1.6013936 22.8219118,1.6342427 C22.8054873,1.6342427 22.797275,1.64245497 22.7808505,1.64245497 C22.6453479,1.64245497 22.5139515,1.6670918 22.3620245,1.6999409 C22.3373876,1.70815317 22.3127508,1.70815317 22.288114,1.71636545 L22.2799017,1.71636545 L22.2716894,1.71636545 C22.2470526,1.72457772 22.2142035,1.74100227 22.1895667,1.74921455 C22.0376396,1.79027592 21.8980309,1.84365571 21.7461038,1.90935391 C21.7296793,1.91346004 21.7132547,1.91346004 21.7050425,1.92577846 C20.5717485,2.44315177 19.4959405,3.5764457 19.1469188,4.69331508 C19.1387066,4.70152736 19.1387066,4.71795191 19.1304943,4.72616418 C19.1304943,4.73437646 19.1304943,4.75080101 19.122282,4.76311942 C18.5104675,6.80386972 16.3218963,8.98012256 14.1702803,9.69048434 C14.1210066,9.69869661 14.0799453,9.72333344 14.0347777,9.73154571 C14.0265655,9.73975799 14.0101409,9.73975799 14.0019286,9.73975799 C13.9896102,9.73975799 13.9855041,9.74797026 13.9772918,9.74797026 C13.9608673,9.75618254 13.952655,9.75618254 13.9362304,9.76439481 C12.577099,10.187327 11.1358447,11.6121567 10.7129126,12.9630759 C10.2940865,14.3345258 11.1029956,15.1393287 12.5401437,14.7656702 Z" id="Path" fill="#002D62"></path>
                    <path d="M21.3560208,24.2590599 C21.3560208,24.2672722 21.3478085,24.2836968 21.3478085,24.3001213 C21.3478085,24.3083336 21.3478085,24.3083336 21.3478085,24.3083336 C21.3478085,24.3247581 21.3478085,24.3411827 21.3395962,24.3535011 C20.9905745,26.8171836 18.7486235,29.100196 16.2890472,29.5436588 C16.2397735,29.5518711 16.1904999,29.5518711 16.1289078,29.5518711 C16.1124833,29.5600834 16.104271,29.5600834 16.0878465,29.5600834 L16.0796342,29.5600834 C16.0632096,29.5600834 16.0467851,29.5682956 16.0303605,29.5682956 C13.5132983,29.8844682 11.8379942,28.1927396 12.2691386,25.7865431 C12.2691386,25.7783308 12.2773509,25.7578001 12.2773509,25.753694 C12.2773509,25.7372694 12.2773509,25.7290571 12.2773509,25.7126326 C12.5360376,24.201574 11.5587769,23.2366317 10.0928858,23.5610166 C8.61057019,23.8854014 7.14878527,25.3553986 6.83261269,26.8377143 C6.5164401,28.3159237 7.4813824,29.2890783 8.9842287,29.0386039 C8.99654711,29.0386039 9.00065325,29.0303916 9.01297166,29.0303916 C9.02118394,29.0303916 9.02939621,29.0303916 9.03760849,29.0303916 C11.4232743,28.5992472 13.0944723,30.2581267 12.8234672,32.7382337 C12.8111488,32.7792951 12.8070426,32.8203565 12.8070426,32.8573117 C12.8070426,32.865524 12.8070426,32.865524 12.8070426,32.865524 C12.7988304,32.8819485 12.7988304,32.8983731 12.7988304,32.9147976 C12.4498087,35.4400722 10.1544779,37.7312969 7.69490155,38.0474694 C7.678477,38.0474694 7.67026472,38.0474694 7.65384017,38.0474694 C7.6456279,38.0474694 7.62920335,38.0474694 7.62099107,38.0556817 C6.0770834,38.273307 4.70152736,39.6734999 4.53728186,41.2091953 C4.36893023,42.7489968 5.5063303,43.9028214 7.07076866,43.7673189 C8.62699474,43.6400286 10.0312937,42.2398358 10.1955392,40.6384422 C10.1955392,40.6302299 10.1955392,40.6220176 10.1955392,40.6138053 C10.1955392,40.6055931 10.1955392,40.5973808 10.1955392,40.5891685 C10.4706504,38.0474694 12.7372383,35.7521386 15.2994681,35.4277538 C15.3158926,35.4277538 15.3405294,35.4277538 15.356954,35.4277538 C15.3980154,35.4195415 15.4390767,35.4113292 15.4842443,35.4031169 C17.9930942,35.1895978 19.8942359,37.1112701 19.7340965,39.7433042 C19.7340965,39.7638349 19.7340965,39.7761533 19.7340965,39.796684 C19.7340965,39.8048963 19.7340965,39.8048963 19.7258842,39.8048963 C19.7258842,39.8213208 19.7258842,39.8377454 19.7258842,39.8459576 C19.6355492,41.5048372 20.9207702,42.7777398 22.6207111,42.6874047 C24.3370766,42.605282 25.8111799,41.1311786 25.9056211,39.4107071 L25.9056211,39.4024948 C25.9056211,39.3450089 25.9138333,39.2875229 25.9138333,39.230037 C25.9138333,37.5999005 24.649143,36.3926961 23.0313249,36.511774 C23.0313249,36.511774 23.0231126,36.511774 23.0149003,36.511774 C23.006688,36.511774 23.006688,36.511774 22.9984758,36.5199863 C20.3418048,36.6924441 18.4078141,34.8036209 18.6336517,32.2413911 C18.6418639,32.2003297 18.6500762,32.1592684 18.6500762,32.118207 C18.6582885,32.0853579 18.6582885,32.0525088 18.6582885,32.0114474 C19.031947,29.4533238 21.3519146,27.1703114 23.901826,26.8623511 C23.9100383,26.8623511 23.9182505,26.8623511 23.9182505,26.8623511 C23.9264628,26.8623511 23.9346751,26.8623511 23.9428874,26.8623511 C25.5689178,26.6693626 27.0265966,25.2116838 27.2031605,23.5938657 C27.2113728,23.483 27.219585,23.3885588 27.219585,23.2859054 C27.219585,21.8282266 26.1191402,20.8427536 24.6450369,21.0357421 C23.0600678,21.2492612 21.6064952,22.6946216 21.3560208,24.2590599 Z" id="Path" fill="#004990"></path>
                    <path d="M8.53665972,20.0092077 C7.90020842,22.2922201 5.60077146,24.5875509 3.37935111,25.1541979 C3.37113883,25.1541979 3.37113883,25.1541979 3.36292656,25.1541979 C3.35471428,25.1624102 3.35471428,25.1624102 3.34650201,25.1624102 C1.93809687,25.5360687 0.529691729,26.9773229 0.184776184,28.3898342 C0.184776184,28.3980465 0.184776184,28.3980465 0.184776184,28.3980465 C-0.156033222,29.8064516 0.726786325,30.7056957 2.15982829,30.4059477 C3.5764457,30.0979874 5.00127539,28.6731577 5.33797866,27.2154789 C5.33797866,27.1990543 5.3420848,27.1908421 5.3420848,27.1744175 C5.3420848,27.1744175 5.3420848,27.1744175 5.3420848,27.1662052 C5.35440321,27.1497807 5.35440321,27.1415684 5.35440321,27.1251439 C5.88820108,24.8216008 8.14657666,22.5303761 10.4542259,21.9473046 C10.487075,21.9390923 10.5199241,21.93088 10.5650916,21.9226677 C10.5815162,21.9226677 10.5979407,21.9144555 10.6143653,21.9144555 C12.9302268,21.4052944 14.4741344,22.9574144 14.071733,25.4169907 C14.071733,25.425203 14.071733,25.4334152 14.071733,25.4416275 C14.071733,25.4498398 14.0635207,25.4580521 14.0635207,25.4662643 C13.8130463,26.9937475 14.8724298,28.0449187 16.4450804,27.8190811 C18.0259433,27.5932435 19.5123651,26.1068218 19.7382026,24.5259589 C19.9640402,22.9615205 18.912869,21.8980309 17.3977043,22.1526114 C17.3812797,22.1526114 17.3730675,22.1526114 17.3648552,22.1526114 C17.3484306,22.1526114 17.3320061,22.1608237 17.3237938,22.1608237 C14.8724298,22.559119 13.324416,21.0111052 13.8294709,18.6911376 C13.8376831,18.674713 13.8376831,18.6582885 13.8458954,18.6500762 L13.8458954,18.6418639 C13.8541077,18.6008026 13.8541077,18.5679535 13.86232,18.5309982 C14.4453915,16.223349 16.7448284,13.9567611 19.0647961,13.4311755 C19.0730084,13.4311755 19.0812206,13.4311755 19.0894329,13.4311755 C19.0976452,13.4229633 19.1058575,13.4229633 19.1058575,13.4229633 C20.5758547,13.0985784 22.0088966,11.681961 22.3086447,10.2530252 C22.6083927,8.82819548 21.7091486,7.94537593 20.3007435,8.28618534 C18.9005506,8.61878247 17.4675086,10.0107631 17.0938501,11.4109559 C17.0856379,11.4191682 17.0856379,11.4355927 17.0774256,11.443805 C17.0774256,11.4520173 17.0774256,11.4684418 17.0651072,11.4807603 C16.4902479,13.7227113 14.1743864,16.0221483 11.8831617,16.6216443 C11.8667372,16.6216443 11.8544188,16.6216443 11.8421004,16.6298566 L11.8338881,16.6298566 C11.8256758,16.6380689 11.8092513,16.6380689 11.801039,16.6462811 C11.7517653,16.6544934 11.6983855,16.670918 11.6491119,16.6873425 C9.47285905,17.1554422 8.25744237,15.8784334 8.91442436,13.7801972 C8.91442436,13.7719849 8.92263664,13.7555604 8.92263664,13.7473481 L8.92263664,13.7391358 C8.92263664,13.7391358 8.92263664,13.7391358 8.93084891,13.7391358 C8.93084891,13.7227113 8.93084891,13.714499 8.93906119,13.7062867 C9.33735652,12.3553675 8.60646406,11.6450058 7.28839394,12.1131054 C5.95800541,12.5812051 4.48800821,14.0388839 4.01990855,15.3651663 C4.01990855,15.3651663 4.01990855,15.3651663 4.01990855,15.3733785 C3.92136125,15.6484898 3.88029987,15.8907519 3.88029987,16.1165894 C3.88029987,16.9501353 4.56191869,17.3484306 5.63772669,17.0158335 C5.64593897,17.0076212 5.64593897,17.0076212 5.65415124,17.0076212 C5.66236352,17.0076212 5.66236352,17.0076212 5.67057579,17.0076212 C7.80576726,16.3260024 9.09509441,17.5660559 8.59003951,19.808007 C8.57772109,19.8326438 8.54487199,19.9763586 8.53665972,20.0092077 Z" id="Path" fill="#007DC3"></path>
                    <path d="M7.37872896,36.4912434 C7.38694124,36.4830311 7.39515351,36.4830311 7.40336579,36.4830311 C7.41157806,36.4830311 7.41157806,36.4830311 7.41979034,36.4830311 C8.95548574,36.2654058 10.3885277,34.8241516 10.606153,33.2556071 C10.8237783,31.6788503 9.76439481,30.6112545 8.24512396,30.8822596 C6.74227766,31.1491586 5.85124584,32.3974243 5.05876132,34.0727284 C5.05465518,34.089153 3.71605438,37.2714095 7.37872896,36.4912434 Z" id="Path" fill="#002D62"></path>
                    <path d="M3.65856845,24.082496 C3.66678073,24.0742838 3.674993,24.0742838 3.68320528,24.0742838 C3.69141755,24.0742838 3.69141755,24.0742838 3.69962983,24.0742838 C5.23532522,23.8566585 6.66836719,22.4154042 6.88599247,20.8468597 C7.10361776,19.270103 6.0442343,18.2025072 4.52496345,18.4735123 C3.02211715,18.7404112 2.13108533,19.988677 1.3386008,21.6639811 C1.33038853,21.6845118 -0.00410613743,24.8667683 3.65856845,24.082496 Z" id="Path" fill="#939598"></path>
                </g>
            </g>
        </g>
    </g>
</svg>