<?xml version="1.0" encoding="UTF-8"?>
<svg width="34px" height="42px" viewBox="0 0 34 42" version="1.1" xmlns="http://www.w3.org/2000/svg" xmlns:xlink="http://www.w3.org/1999/xlink">
    <!-- Generator: Sketch 54.1 (76490) - https://sketchapp.com -->
    <title>logoColors</title>
    <desc>Created with Sketch.</desc>
    <g id="Page-1" stroke="none" stroke-width="1" fill="none" fill-rule="evenodd">
        <g id="Artboard" transform="translate(-2141.000000, -1977.000000)" fill="#233748" fill-rule="nonzero">
            <g id="logoColors" transform="translate(2141.000000, 1977.000000)">
                <path d="M26.976796,37.55021 C26.976796,37.5619787 26.976796,37.5619787 26.976796,37.5659016 C26.8983376,39.2056831 28.1968248,40.4963244 29.8679896,40.4492494 L29.8758354,40.4492494 C30.7114178,40.417866 31.4920793,40.0491113 32.064826,39.4763647 C32.6297267,38.9114639 33.0024043,38.1308024 33.0298648,37.29522 C33.0847857,35.6279781 31.8019902,34.3412597 30.1779004,34.3961806 C30.1622088,34.3961806 30.1465171,34.3961806 30.1308254,34.3961806 C30.1229795,34.3961806 30.1229795,34.3961806 30.1229795,34.3961806 C30.1072878,34.3961806 30.0915962,34.3961806 30.0759045,34.4040265 C27.4553925,34.4981766 25.4939315,32.5327926 25.6900776,30.0064308 C25.6900776,29.9907391 25.6979234,29.9750475 25.6979234,29.9593558 C25.6979234,29.9515099 25.6979234,29.9358182 25.6979234,29.9201265 C25.8038423,28.335266 24.6308886,27.1819269 23.0774115,27.3466897 C21.5082427,27.5114524 20.0920678,28.9237043 19.9233822,30.4928732 C19.7664653,32.0541961 20.9198044,33.2271498 22.5203566,33.1133851 C22.5282024,33.1133851 22.5282024,33.1133851 22.5360483,33.1133851 C22.5438941,33.1133851 22.5595858,33.1133851 22.5674316,33.1133851 C25.1251768,32.9133161 27.0984066,34.8904688 26.980719,37.5266724 C26.976796,37.5384412 26.976796,37.546287 26.976796,37.55021 Z" id="Path"></path>
                <path d="M26.3530514,4.93111303 L26.3608973,4.93111303 L26.372666,4.93111303 C27.73392,4.68396894 29.0324072,3.42471096 29.2599367,2.14976129 C29.4913891,0.878734541 28.6322692,0.0627667529 27.3416278,0.317756687 L27.3337819,0.325602531 L27.3259361,0.325602531 C26.0352947,0.584515387 24.7368075,1.81631291 24.4347425,3.08341674 C24.1326775,4.35052056 24.9917975,5.18610296 26.3530514,4.93111303 Z" id="Path"></path>
                <path d="M12.132459,14.1068277 C12.1403048,14.1068277 12.1403048,14.1068277 12.1481507,14.1068277 C12.8268162,13.9224504 13.5172505,13.490929 14.0821512,12.937797 C14.647052,12.380742 15.0864193,11.7099223 15.2707966,11.0391027 C15.2707966,11.0312568 15.2707966,11.023411 15.2707966,11.023411 C15.2707966,11.0155651 15.2786425,11.0116422 15.2786425,10.9998735 C15.8356974,9.00310613 17.7971584,7.01026172 19.7703882,6.32375036 C19.8919988,6.28452114 20.0096865,6.24529192 20.1391429,6.21390854 C20.1469887,6.21390854 20.1548346,6.20998562 20.1626804,6.20998562 C20.1705263,6.20998562 20.1705263,6.20998562 20.1783721,6.20998562 L20.186218,6.20998562 C20.186218,6.19821685 20.186218,6.19821685 20.186218,6.19821685 L20.1940638,6.19821685 L20.2019096,6.19821685 L20.2097555,6.19821685 C20.2176013,6.19821685 20.2176013,6.19821685 20.2254472,6.19037101 C20.233293,6.19037101 20.2411389,6.19037101 20.2489847,6.19037101 C20.3745182,6.15898763 20.488283,6.1354501 20.6059706,6.11975841 C22.4693586,5.86476848 23.6501581,7.14756399 23.2657118,9.19140638 C23.2578659,9.23063561 23.2343284,9.27378775 23.2225596,9.31301697 C23.2225596,9.32870866 23.2147138,9.3365545 23.2147138,9.35224619 C23.2147138,9.36009203 23.2147138,9.37578372 23.2147138,9.38362957 C22.7714236,11.5569284 20.586356,13.7145355 18.3267529,14.193132 C18.3189071,14.193132 18.3032154,14.2009779 18.2953695,14.2009779 C18.2875237,14.2009779 18.2875237,14.2009779 18.2875237,14.2009779 L18.2796778,14.2009779 C18.271832,14.2009779 18.2561403,14.2088237 18.2482945,14.2166695 C16.8438884,14.5265804 15.4669427,15.903526 15.1570319,17.3079321 C14.8549669,18.7201841 15.7846994,19.6577624 17.2597181,19.3949267 C17.9933045,19.2576244 18.7072763,18.8535634 19.2761,18.2886626 C19.833155,17.7316077 20.2489847,17.0294047 20.3823641,16.307587 C20.3902099,16.2958182 20.3902099,16.2918953 20.3902099,16.2918953 C20.3902099,16.2840495 20.3902099,16.2840495 20.3902099,16.2722807 C20.8295772,13.9812942 23.0185677,11.8119183 25.3017083,11.423549 C25.3095542,11.4157032 25.3174,11.4157032 25.3252459,11.4157032 C25.3330917,11.4157032 25.3409375,11.4157032 25.3409375,11.4157032 C26.6001955,11.1999425 27.784918,10.1564452 28.1929019,8.97172275 C28.2713603,8.76380788 28.3419729,8.54804717 28.3772792,8.34405522 C28.5851941,6.97495542 27.6672303,6.0648375 26.3138222,6.28844406 C26.3020534,6.28844406 26.2981305,6.28844406 26.2824388,6.28844406 L26.274593,6.28844406 C26.2667471,6.28844406 26.2667471,6.29628991 26.2589013,6.29628991 C26.2432096,6.29628991 26.2353638,6.30413575 26.2196721,6.30413575 C26.1804429,6.31198159 26.1412136,6.31198159 26.0902157,6.32375036 C23.9875294,6.60227783 22.7047339,5.29594478 23.1833304,3.34625252 C23.1911763,3.33840667 23.1911763,3.32271498 23.1990221,3.31486914 C23.1990221,3.3070233 23.1990221,3.29133161 23.1990221,3.28348576 C23.454012,2.21645096 22.9048029,1.5299396 21.9554558,1.56132298 C21.9397641,1.56132298 21.9319183,1.56916882 21.9162266,1.56916882 C21.7867702,1.56916882 21.6612367,1.59270636 21.5160885,1.62408973 C21.492551,1.63193558 21.4690135,1.63193558 21.4454759,1.63978142 L21.4376301,1.63978142 L21.4297842,1.63978142 C21.4062467,1.64762726 21.3748633,1.66331895 21.3513258,1.6711648 C21.2061777,1.71039402 21.0727983,1.761392 20.9276502,1.82415876 C20.9119585,1.82808168 20.8962668,1.82808168 20.888421,1.83985045 C19.8056945,2.33413863 18.7778889,3.41686511 18.4444406,4.48389991 C18.4365947,4.49174576 18.4365947,4.50743745 18.4287489,4.51528329 C18.4287489,4.52312913 18.4287489,4.53882082 18.420903,4.55058959 C17.8363876,6.50028185 15.7454702,8.57943054 13.689859,9.25809606 C13.642784,9.2659419 13.6035547,9.28947944 13.5604026,9.29732528 C13.5525568,9.30517112 13.5368651,9.30517112 13.5290192,9.30517112 C13.5172505,9.30517112 13.5133275,9.31301697 13.5054817,9.31301697 C13.48979,9.32086281 13.4819442,9.32086281 13.4662525,9.32870866 C12.1677653,9.73276963 10.7908196,11.0940236 10.3867587,12.3846649 C9.9866206,13.6949209 10.7594362,14.4638136 12.132459,14.1068277 Z" id="Path"></path>
                <path d="M20.5549726,23.1766235 C20.5549726,23.1844694 20.5471268,23.2001611 20.5471268,23.2158527 C20.5471268,23.2236986 20.5471268,23.2236986 20.5471268,23.2236986 C20.5471268,23.2393903 20.5471268,23.255082 20.5392809,23.2668507 C20.2058326,25.620604 18.0639171,27.8017486 15.7140868,28.2254242 C15.6670117,28.2332701 15.6199367,28.2332701 15.5610928,28.2332701 C15.5454012,28.2411159 15.5375553,28.2411159 15.5218636,28.2411159 L15.5140178,28.2411159 C15.4983261,28.2411159 15.4826344,28.2489617 15.4669427,28.2489617 C13.0621915,28.5510267 11.4616393,26.9347829 11.8735461,24.6359505 C11.8735461,24.6281047 11.881392,24.6084901 11.881392,24.6045672 C11.881392,24.5888755 11.881392,24.5810296 11.881392,24.5653379 C12.128536,23.1217026 11.1948806,22.1998159 9.79439742,22.5097268 C8.37822256,22.8196376 6.98166231,24.2240437 6.67959731,25.6402186 C6.37753231,27.0524705 7.29941899,27.982203 8.73520847,27.7429048 C8.74697723,27.7429048 8.75090015,27.735059 8.76266892,27.735059 C8.77051476,27.735059 8.77836061,27.735059 8.78620645,27.735059 C11.0654242,27.3231521 12.6620534,28.9080127 12.4031406,31.2774576 C12.3913718,31.3166868 12.3874489,31.355916 12.3874489,31.3912223 C12.3874489,31.3990682 12.3874489,31.3990682 12.3874489,31.3990682 C12.3796031,31.4147599 12.3796031,31.4304515 12.3796031,31.4461432 C12.0461547,33.8587403 9.85324125,36.0477308 7.50341094,36.3497958 C7.48771925,36.3497958 7.47987341,36.3497958 7.46418172,36.3497958 C7.45633587,36.3497958 7.44064419,36.3497958 7.43279834,36.3576416 C5.95777965,36.5655565 4.64360076,37.9032729 4.48668388,39.3704458 C4.32584407,40.8415416 5.41249348,41.9438827 6.90712679,41.8144262 C8.39391425,41.6928156 9.73555359,40.3550992 9.89247047,38.8251596 C9.89247047,38.8173138 9.89247047,38.8094679 9.89247047,38.8016221 C9.89247047,38.7937762 9.89247047,38.7859304 9.89247047,38.7780846 C10.1553063,36.3497958 12.3207592,34.1568824 14.7686626,33.8469715 C14.7843543,33.8469715 14.8078918,33.8469715 14.8235835,33.8469715 C14.8628127,33.8391257 14.9020419,33.8312798 14.9451941,33.823434 C17.3420995,33.619442 19.1584124,35.4553696 19.0054184,37.9699626 C19.0054184,37.9895772 19.0054184,38.001346 19.0054184,38.0209606 C19.0054184,38.0288064 19.0054184,38.0288064 18.9975726,38.0288064 C18.9975726,38.0444981 18.9975726,38.0601898 18.9975726,38.0680357 C18.9112683,39.6528962 20.1391429,40.869002 21.7632326,40.7826977 C23.403014,40.7042393 24.8113431,39.2959103 24.9015703,37.6522059 L24.9015703,37.6443601 C24.9015703,37.5894392 24.9094161,37.5345183 24.9094161,37.4795974 C24.9094161,35.9221973 23.7011561,34.7688582 22.1555248,34.882623 C22.1555248,34.882623 22.147679,34.882623 22.1398331,34.882623 C22.1319873,34.882623 22.1319873,34.882623 22.1241415,34.8904688 C19.5860109,35.0552315 17.7383146,33.2506874 17.9540753,30.802784 C17.9619211,30.7635548 17.969767,30.7243256 17.969767,30.6850963 C17.9776128,30.653713 17.9776128,30.6223296 17.9776128,30.5831004 C18.3345987,28.1391199 20.5510497,25.9579753 22.9871843,25.6637561 C22.9950302,25.6637561 23.002876,25.6637561 23.002876,25.6637561 C23.0107218,25.6637561 23.0185677,25.6637561 23.0264135,25.6637561 C24.5798907,25.4793788 25.972528,24.0867414 26.1412136,22.5411102 C26.1490595,22.4351913 26.1569053,22.344964 26.1569053,22.246891 C26.1569053,20.8542537 25.1055622,19.9127524 23.6972332,20.0971297 C22.1829853,20.3011217 20.7942709,21.6819902 20.5549726,23.1766235 Z" id="Path"></path>
                <path d="M8.30760996,19.1163992 C7.69955704,21.2975439 5.50272069,23.4904573 3.38041985,24.0318205 C3.37257401,24.0318205 3.37257401,24.0318205 3.36472817,24.0318205 C3.35688232,24.0396664 3.35688232,24.0396664 3.34903648,24.0396664 C2.00347421,24.3966523 0.657911946,25.7735979 0.328386493,27.1230831 C0.328386493,27.130929 0.328386493,27.130929 0.328386493,27.130929 C0.002783962,28.4764912 0.846212204,29.3356112 2.215312,29.0492378 C3.56872011,28.7550187 4.92997407,27.3937647 5.25165368,26.0011274 C5.25165368,25.9854357 5.2555766,25.9775899 5.2555766,25.9618982 C5.2555766,25.9618982 5.2555766,25.9618982 5.2555766,25.9540523 C5.26734537,25.9383607 5.26734537,25.9305148 5.26734537,25.9148231 C5.77732523,23.7140638 7.93493237,21.5250733 10.1396146,20.9680184 C10.1709979,20.9601726 10.2023813,20.9523267 10.2455335,20.9444809 C10.2612251,20.9444809 10.2769168,20.936635 10.2926085,20.936635 C12.5051366,20.4501927 13.9801553,21.9330572 13.5957089,24.2828875 C13.5957089,24.2907334 13.5957089,24.2985792 13.5957089,24.3064251 C13.5957089,24.3142709 13.5878631,24.3221168 13.5878631,24.3299626 C13.3485648,25.7892896 14.3606787,26.7935577 15.8631578,26.577797 C17.3734828,26.3620362 18.7935806,24.9419385 19.0093413,23.4316135 C19.2251021,21.9369802 18.220834,20.9209433 16.7732758,21.1641645 C16.7575841,21.1641645 16.7497382,21.1641645 16.7418924,21.1641645 C16.7262007,21.1641645 16.710509,21.1720104 16.7026632,21.1720104 C14.3606787,21.5525338 12.8817371,20.0735922 13.3642565,17.8571412 C13.3721023,17.8414495 13.3721023,17.8257578 13.3799482,17.817912 L13.3799482,17.8100661 C13.387794,17.7708369 13.387794,17.7394536 13.3956399,17.7041473 C13.9526948,15.4994651 16.1495312,13.3340121 18.3659821,12.8318781 C18.373828,12.8318781 18.3816738,12.8318781 18.3895197,12.8318781 C18.3973655,12.8240322 18.4052113,12.8240322 18.4052113,12.8240322 C19.8096174,12.5141214 21.1787172,11.1607133 21.4650905,9.79553638 C21.7514639,8.43428243 20.8923439,7.59085418 19.5467817,7.91645672 C18.2090652,8.2342134 16.8399654,9.56408398 16.4829795,10.9018004 C16.4751337,10.9096462 16.4751337,10.9253379 16.4672878,10.9331838 C16.4672878,10.9410296 16.4672878,10.9567213 16.4555191,10.9684901 C15.90631,13.1104055 13.6937819,15.3072419 11.5047914,15.8799885 C11.4890998,15.8799885 11.477331,15.8799885 11.4655622,15.8878343 L11.4577164,15.8878343 C11.4498705,15.8956802 11.4341788,15.8956802 11.426333,15.903526 C11.3792579,15.9113719 11.3282599,15.9270636 11.2811849,15.9427552 C9.20203619,16.3899684 8.04085126,15.1699396 8.66851879,13.1653264 C8.66851879,13.1574806 8.67636463,13.1417889 8.67636463,13.1339431 L8.67636463,13.1260972 C8.67636463,13.1260972 8.67636463,13.1260972 8.68421048,13.1260972 C8.68421048,13.1104055 8.68421048,13.1025597 8.69205632,13.0947138 C9.07257976,11.8040725 8.37429964,11.125407 7.11504166,11.5726201 C5.84401491,12.0198332 4.43960881,13.4124705 3.9923957,14.6795743 C3.9923957,14.6795743 3.9923957,14.6795743 3.9923957,14.6874202 C3.89824557,14.950256 3.85901635,15.1817084 3.85901635,15.3974691 C3.85901635,16.1938223 4.51022141,16.5743457 5.53802699,16.256589 C5.54587283,16.2487432 5.54587283,16.2487432 5.55371868,16.2487432 C5.56156452,16.2487432 5.56156452,16.2487432 5.56941036,16.2487432 C7.60932983,15.5975381 8.84112736,16.7822606 8.35860795,18.924176 C8.34683918,18.9477135 8.31545581,19.0850158 8.30760996,19.1163992 Z" id="Path"></path>
                <path d="M7.20134594,34.8630083 C7.20919178,34.8551625 7.21703763,34.8551625 7.22488347,34.8551625 C7.23272932,34.8551625 7.23272932,34.8551625 7.24057516,34.8551625 C8.70774801,34.6472476 10.0768478,33.270302 10.2847627,31.7717458 C10.4926775,30.2653437 9.48056366,29.245384 8.02908249,29.5042968 C6.59329302,29.7592867 5.74201893,30.951855 4.98489498,32.5524072 C4.98097205,32.5680989 3.70209946,35.6083635 7.20134594,34.8630083 Z" id="Path"></path>
                <path d="M3.64717855,23.0079379 C3.6550244,23.000092 3.66287024,23.000092 3.67071609,23.000092 C3.67856193,23.000092 3.67856193,23.000092 3.68640778,23.000092 C5.15358063,22.7921772 6.52268042,21.4152315 6.73059529,19.9166753 C6.93851016,18.4102732 5.92639627,17.3903135 4.47491511,17.6492263 C3.03912564,17.9042163 2.18785155,19.0967846 1.43072759,20.6973368 C1.42288175,20.7169514 0.147932078,23.757216 3.64717855,23.0079379 Z" id="Path"></path>
            </g>
        </g>
    </g>
</svg>