<?xml version="1.0" encoding="UTF-8"?>
<svg width="251px" height="100px" viewBox="0 0 251 100" version="1.1" xmlns="http://www.w3.org/2000/svg" xmlns:xlink="http://www.w3.org/1999/xlink">
    <!-- Generator: Sketch 54.1 (76490) - https://sketchapp.com -->
    <title>logoWhite</title>
    <desc>Created with Sketch.</desc>
    <g id="logoWhite" stroke="none" stroke-width="1" fill="none" fill-rule="evenodd">
        <g id="DNL_LogVertival" transform="translate(0.000000, 4.500000)" fill="#DBDBDB" fill-rule="nonzero">
            <g id="Group" transform="translate(0.370989, 0.000000)">
                <path d="M58.113378,81.3485309 C58.113378,81.3740267 58.113378,81.3740267 58.113378,81.3825253 C57.9434062,84.9349371 60.7564404,87.7309742 64.376841,87.628991 L64.3938381,87.628991 C66.2040384,87.5610023 67.8952584,86.7621346 69.136053,85.52134 C70.3598503,84.2975426 71.1672167,82.6063227 71.2267068,80.7961224 C71.3456871,77.1842204 68.5666472,74.396682 65.0482298,74.5156623 C65.0142354,74.5156623 64.9802411,74.5156623 64.9462467,74.5156623 C64.9292495,74.5156623 64.9292495,74.5156623 64.9292495,74.5156623 C64.8952551,74.5156623 64.8612608,74.5156623 64.8272664,74.5326594 C59.1502063,74.7366257 54.9009099,70.4788306 55.3258396,65.0057368 C55.3258396,64.9717425 55.3428367,64.9377481 55.3428367,64.9037537 C55.3428367,64.8867565 55.3428367,64.8527622 55.3428367,64.8187678 C55.5722988,61.3853363 53.0312195,58.88675 49.6657767,59.2436909 C46.2663396,59.6006318 43.1983475,62.6601252 42.832908,66.0595623 C42.4929643,69.4420023 44.9915506,71.9830816 48.4589765,71.7366224 C48.4759737,71.7366224 48.4759737,71.7366224 48.4929709,71.7366224 C48.5099681,71.7366224 48.5439625,71.7366224 48.5609596,71.7366224 C54.1020422,71.3031941 58.3768344,75.586485 58.1218766,81.2975394 C58.113378,81.3230351 58.113378,81.3400323 58.113378,81.3485309 Z" id="Path"></path>
                <path d="M56.7621018,10.6827312 L56.7790989,10.6827312 L56.8045947,10.6827312 C59.7536064,10.1473199 62.5666407,7.41927157 63.0595591,4.65722889 C63.560976,1.9036848 61.6997842,0.135977486 58.9037472,0.688386022 L58.88675,0.705383208 L58.8697528,0.705383208 C56.0737157,1.26629034 53.2606815,3.9348485 52.6062898,6.67989399 C51.9518982,9.42493949 53.81309,11.2351398 56.7621018,10.6827312 Z" id="Path"></path>
                <path d="M25.9547026,30.5609399 C25.9716998,30.5609399 25.9716998,30.5609399 25.988697,30.5609399 C27.4589536,30.1615061 28.9547059,29.2266609 30.1785033,28.0283593 C31.4023006,26.8215591 32.354143,25.3682997 32.7535769,23.9150403 C32.7535769,23.8980431 32.7535769,23.881046 32.7535769,23.881046 C32.7535769,23.8640488 32.7705741,23.8555502 32.7705741,23.8300544 C33.9773743,19.5042706 38.2266707,15.1869855 42.5014629,13.6997317 C42.7649193,13.6147458 43.0198771,13.5297598 43.3003307,13.4617711 C43.3173278,13.4617711 43.334325,13.4532725 43.3513222,13.4532725 C43.3683194,13.4532725 43.3683194,13.4532725 43.3853166,13.4532725 L43.4023138,13.4532725 C43.4023138,13.4277767 43.4023138,13.4277767 43.4023138,13.4277767 L43.419311,13.4277767 L43.4363081,13.4277767 L43.4533053,13.4277767 C43.4703025,13.4277767 43.4703025,13.4277767 43.4872997,13.4107795 C43.5042969,13.4107795 43.5212941,13.4107795 43.5382913,13.4107795 C43.8102462,13.3427908 44.0567054,13.2917992 44.3116632,13.2578049 C48.3484948,12.7053963 50.9065713,15.4844362 50.0737092,19.9122031 C50.056712,19.997189 50.0057204,20.0906735 49.9802246,20.1756595 C49.9802246,20.2096538 49.9632275,20.226651 49.9632275,20.2606454 C49.9632275,20.2776426 49.9632275,20.311637 49.9632275,20.3286341 C49.0028865,25.0368546 44.2691702,29.7110807 39.3739807,30.747909 C39.3569836,30.747909 39.3229892,30.7649062 39.305992,30.7649062 C39.2889948,30.7649062 39.2889948,30.7649062 39.2889948,30.7649062 L39.2719976,30.7649062 C39.2550004,30.7649062 39.2210061,30.7819034 39.2040089,30.7989005 C36.1615126,31.4702894 33.1785065,34.4532955 32.5071177,37.4957917 C31.8527261,40.5552852 33.8668926,42.5864489 37.0623635,42.0170431 C38.6516004,41.7195924 40.1983443,40.8442373 41.4306402,39.6204399 C42.6374404,38.4136398 43.5382913,36.8923916 43.8272434,35.3286505 C43.8442406,35.3031548 43.8442406,35.2946562 43.8442406,35.2946562 C43.8442406,35.277659 43.8442406,35.277659 43.8442406,35.2521632 C44.796083,30.288985 49.5382978,25.5892631 54.4844789,24.7479024 C54.5014761,24.7309052 54.5184732,24.7309052 54.5354704,24.7309052 C54.5524676,24.7309052 54.5694648,24.7309052 54.5694648,24.7309052 C57.2975131,24.2634826 59.8640881,22.0028569 60.7479418,19.4362819 C60.9179137,18.9858565 61.0708883,18.5184339 61.1473757,18.076507 C61.5978011,15.1104981 59.6091304,13.1388246 56.6771158,13.6232444 C56.65162,13.6232444 56.6431215,13.6232444 56.6091271,13.6232444 L56.5921299,13.6232444 C56.5751327,13.6232444 56.5751327,13.6402416 56.5581355,13.6402416 C56.5241412,13.6402416 56.507144,13.6572387 56.4731496,13.6572387 C56.3881637,13.6742359 56.3031777,13.6742359 56.192696,13.6997317 C51.6374503,14.3031318 48.8584104,11.4731004 49.8952387,7.24929971 C49.9122359,7.23230253 49.9122359,7.19830816 49.9292331,7.18131097 C49.9292331,7.16431379 49.9292331,7.13031941 49.9292331,7.11332223 C50.4816416,4.80170497 49.2918386,3.31445122 47.2351792,3.38243996 C47.2011848,3.38243996 47.1841876,3.39943715 47.1501932,3.39943715 C46.8697397,3.39943715 46.5977847,3.4504287 46.2833367,3.51841745 C46.2323452,3.53541463 46.1813536,3.53541463 46.1303621,3.55241182 L46.1133649,3.55241182 L46.0963677,3.55241182 C46.0453761,3.569409 45.9773874,3.60340338 45.9263958,3.62040056 C45.6119479,3.70538649 45.3229958,3.8158682 45.0085478,3.95184568 C44.9745534,3.96034428 44.9405591,3.96034428 44.9235619,3.98584005 C42.5779503,5.05666276 40.3513189,7.40227439 39.6289385,9.71389165 C39.6119413,9.73088883 39.6119413,9.7648832 39.5949442,9.78188039 C39.5949442,9.79887757 39.5949442,9.83287195 39.577947,9.85836772 C38.3116566,14.0821684 33.7819066,18.5864226 29.328644,20.0566792 C29.2266609,20.0736764 29.1416749,20.1246679 29.0481904,20.1416651 C29.0311932,20.1586623 28.9971989,20.1586623 28.9802017,20.1586623 C28.9547059,20.1586623 28.9462073,20.1756595 28.9292101,20.1756595 C28.8952157,20.1926567 28.8782186,20.1926567 28.8442242,20.2096538 C26.0311899,21.0850089 23.0481839,24.0340206 22.1728288,26.8300577 C21.3059723,29.6685877 22.9801951,31.3343119 25.9547026,30.5609399 Z" id="Path"></path>
                <path d="M44.2011815,50.2096867 C44.2011815,50.2266838 44.1841843,50.2606782 44.1841843,50.2946726 C44.1841843,50.3116698 44.1841843,50.3116698 44.1841843,50.3116698 C44.1841843,50.3456641 44.1841843,50.3796585 44.1671871,50.4051543 C43.4448067,55.50431 38.804575,60.2295276 33.7139179,61.1473757 C33.6119348,61.1643729 33.5099517,61.1643729 33.3824728,61.1643729 C33.3484784,61.18137 33.3314812,61.18137 33.2974868,61.18137 L33.2804897,61.18137 C33.2464953,61.18137 33.2125009,61.1983672 33.1785065,61.1983672 C27.9688691,61.8527589 24.5014432,58.3513386 25.3937955,53.3711632 C25.3937955,53.354166 25.4107927,53.311673 25.4107927,53.3031745 C25.4107927,53.2691801 25.4107927,53.2521829 25.4107927,53.2181885 C25.946204,50.0907064 23.9235389,48.093537 20.8895413,48.7649259 C17.8215492,49.4363147 14.7960502,52.4788109 14.1416585,55.546803 C13.4872669,58.6062964 15.4844362,60.6204629 18.5949212,60.1020488 C18.620417,60.1020488 18.6289156,60.0850516 18.6544113,60.0850516 C18.6714085,60.0850516 18.6884057,60.0850516 18.7054029,60.0850516 C23.6430854,59.1926993 27.1020127,62.6261308 26.5411055,67.7592809 C26.5156097,67.8442669 26.5071111,67.9292528 26.5071111,68.0057401 C26.5071111,68.0227373 26.5071111,68.0227373 26.5071111,68.0227373 C26.490114,68.0567317 26.490114,68.090726 26.490114,68.1247204 C25.7677336,73.351355 21.0170202,78.0935698 15.926363,78.7479615 C15.8923687,78.7479615 15.8753715,78.7479615 15.8413771,78.7479615 C15.8243799,78.7479615 15.7903855,78.7479615 15.7733884,78.7649587 C12.5779174,79.2153841 9.73088883,82.1134043 9.39094512,85.291878 C9.04250281,88.4788503 11.396613,90.8669549 14.6345769,90.5865014 C17.8555436,90.323045 20.7620624,87.4250248 21.1020061,84.1105736 C21.1020061,84.0935764 21.1020061,84.0765792 21.1020061,84.059582 C21.1020061,84.0425849 21.1020061,84.0255877 21.1020061,84.0085905 C21.6714118,78.7479615 26.3626351,73.9972481 31.665757,73.3258592 C31.6997514,73.3258592 31.7507429,73.3258592 31.7847373,73.3258592 C31.8697232,73.3088621 31.9547092,73.2918649 32.0481937,73.2748677 C37.2408339,72.8329409 41.1756824,76.8102823 40.8442373,82.2578804 C40.8442373,82.3003733 40.8442373,82.3258691 40.8442373,82.3683621 C40.8442373,82.3853592 40.8442373,82.3853592 40.8272401,82.3853592 C40.8272401,82.4193536 40.8272401,82.453348 40.8272401,82.4703452 C40.6402711,85.9037767 43.3003307,88.5383405 46.8187481,88.3513714 C50.3711599,88.1813996 53.4221548,85.1304047 53.6176224,81.5694943 L53.6176224,81.5524971 C53.6176224,81.4335168 53.6346196,81.3145365 53.6346196,81.1955562 C53.6346196,77.8216149 51.017053,75.3230286 47.6686074,75.5694878 C47.6686074,75.5694878 47.6516102,75.5694878 47.634613,75.5694878 C47.6176158,75.5694878 47.6176158,75.5694878 47.6006186,75.586485 C42.1020291,75.9434259 38.0991918,72.0340731 38.5666144,66.7309512 C38.5836116,66.6459653 38.6006088,66.5609793 38.6006088,66.4759934 C38.617606,66.4080047 38.617606,66.3400159 38.617606,66.25503 C39.3909779,60.9604066 44.1926829,56.235189 49.4703091,55.5977945 C49.4873063,55.5977945 49.5043034,55.5977945 49.5043034,55.5977945 C49.5213006,55.5977945 49.5382978,55.5977945 49.555295,55.5977945 C52.9207378,55.1983607 55.9377382,52.1813602 56.3031777,48.8329146 C56.3201749,48.6034526 56.3371721,48.407985 56.3371721,48.1955201 C56.3371721,45.1785197 54.0595492,43.1388574 51.0085544,43.5382913 C47.7280975,43.9802181 44.7195957,46.9717228 44.2011815,50.2096867 Z" id="Path"></path>
                <path d="M17.6685746,41.413643 C16.3512927,46.1388607 11.5920807,50.8895741 6.99434193,52.0623799 C6.97734474,52.0623799 6.97734474,52.0623799 6.96034756,52.0623799 C6.94335037,52.0793771 6.94335037,52.0793771 6.92635319,52.0793771 C4.01133583,52.852749 1.09631848,55.8357551 0.382436679,58.7592711 C0.382436679,58.7762683 0.382436679,58.7762683 0.382436679,58.7762683 C-0.322946529,61.6912856 1.50425094,63.5524775 4.47025985,62.9320802 C7.40227439,62.2946857 10.3512861,59.345674 11.0481707,56.3286735 C11.0481707,56.2946791 11.0566693,56.277682 11.0566693,56.2436876 C11.0566693,56.2436876 11.0566693,56.2436876 11.0566693,56.2266904 C11.0821651,56.192696 11.0821651,56.1756988 11.0821651,56.1417045 C12.1869822,51.3739939 16.8612082,46.6317791 21.6374174,45.4249789 C21.7054062,45.4079817 21.7733949,45.3909845 21.8668794,45.3739873 C21.9008738,45.3739873 21.9348682,45.3569901 21.9688626,45.3569901 C26.7620689,44.3031646 29.9575399,47.5156327 29.1246778,52.6062898 C29.1246778,52.623287 29.1246778,52.6402842 29.1246778,52.6572814 C29.1246778,52.6742786 29.1076806,52.6912758 29.1076806,52.708273 C28.5892664,55.8697495 30.7819034,58.0453893 34.0368644,57.5779667 C37.3088227,57.1105441 40.3853133,54.0340534 40.8527359,50.7620952 C41.3201585,47.5241313 39.1445187,45.3229958 36.008538,45.8499085 C35.9745436,45.8499085 35.9575464,45.8499085 35.9405492,45.8499085 C35.9065549,45.8499085 35.8725605,45.8669057 35.8555633,45.8669057 C30.7819034,46.6912692 27.5779339,43.4872997 28.6232608,38.6855947 C28.640258,38.6516004 28.640258,38.617606 28.6572551,38.6006088 L28.6572551,38.5836116 C28.6742523,38.4986257 28.6742523,38.4306369 28.6912495,38.3541496 C29.8980497,33.5779404 34.6572617,28.8867172 39.4589667,27.7988973 C39.4759639,27.7988973 39.492961,27.7988973 39.5099582,27.7988973 C39.5269554,27.7819001 39.5439526,27.7819001 39.5439526,27.7819001 C42.5864489,27.1105112 45.5524578,24.1784967 46.172855,21.2209864 C46.7932523,18.2719747 44.9320605,16.4447772 42.0170431,17.1501604 C39.119023,17.8385464 36.1530141,20.7195694 35.3796421,23.6175896 C35.3626449,23.6345868 35.3626449,23.6685811 35.3456477,23.6855783 C35.3456477,23.7025755 35.3456477,23.7365699 35.320152,23.7620657 C34.130349,28.4022974 29.3371426,33.1615094 24.5949278,34.4023039 C24.5609334,34.4023039 24.5354376,34.4023039 24.5099418,34.4193011 L24.4929446,34.4193011 C24.4759475,34.4362983 24.4419531,34.4362983 24.4249559,34.4532955 C24.3229728,34.4702927 24.2124911,34.504287 24.110508,34.5382814 C19.6062537,35.507121 17.0906703,32.8640586 18.4504451,28.5212777 C18.4504451,28.5042805 18.4674423,28.4702861 18.4674423,28.4532889 L18.4674423,28.4362917 C18.4674423,28.4362917 18.4674423,28.4362917 18.4844395,28.4362917 C18.4844395,28.4022974 18.4844395,28.3853002 18.5014367,28.368303 C19.3258002,25.5722659 17.8130506,24.1020094 15.0850023,25.070849 C12.3314582,26.0396885 9.288962,29.056689 8.32012242,31.8017345 C8.32012242,31.8017345 8.32012242,31.8017345 8.32012242,31.8187317 C8.11615619,32.3881374 8.03117026,32.8895544 8.03117026,33.356977 C8.03117026,35.0821914 9.44193667,35.9065549 11.668568,35.2181688 C11.6855652,35.2011717 11.6855652,35.2011717 11.7025624,35.2011717 C11.7195596,35.2011717 11.7195596,35.2011717 11.7365567,35.2011717 C16.155825,33.7904052 18.8243832,36.3569803 17.7790563,40.997212 C17.7535605,41.0482035 17.6855718,41.3456543 17.6685746,41.413643 Z" id="Path"></path>
                <path d="M15.2719714,75.5269948 C15.2889686,75.5099976 15.3059658,75.5099976 15.3229629,75.5099976 C15.3399601,75.5099976 15.3399601,75.5099976 15.3569573,75.5099976 C18.535431,75.0595722 21.50144,72.0765661 21.9518654,68.8301036 C22.4022908,65.566644 20.2096538,63.3570098 17.0651745,63.9179169 C13.9546895,64.4703255 12.1104948,67.0538977 10.4702664,70.5213236 C10.4617678,70.555318 7.69122654,77.1417274 15.2719714,75.5269948 Z" id="Path"></path>
                <path d="M7.57224624,49.8442472 C7.58924343,49.82725 7.60624062,49.82725 7.6232378,49.82725 C7.64023499,49.82725 7.64023499,49.82725 7.65723217,49.82725 C10.8357059,49.3768246 13.8017148,46.3938185 14.2521402,43.147356 C14.7025657,39.8838963 12.5099287,37.6742622 9.36544934,38.2351693 C6.25496435,38.7875778 4.4107697,41.3711501 2.77054127,44.838576 C2.75354409,44.8810689 -0.00849859287,51.4674784 7.57224624,49.8442472 Z" id="Path"></path>
            </g>
        </g>
        <path d="M94.26,61.615 C93.67,62.205 92.8,62.535 91.75,62.535 L88.38,62.535 L88.38,52.505 L91.75,52.505 C92.79,52.505 93.67,52.825 94.26,53.425 C95.27,54.435 95.23,56.035 95.23,57.385 C95.23,58.725 95.28,60.605 94.26,61.615 Z M93.73,53.955 C93.15,53.365 92.38,53.185 91.58,53.185 L89.16,53.185 L89.16,61.865 L91.58,61.865 C92.38,61.865 93.16,61.685 93.73,61.095 C94.53,60.275 94.48,58.505 94.48,57.395 C94.47,56.265 94.53,54.775 93.73,53.955 Z" id="Shape" fill="#DBDBDB" fill-rule="nonzero"></path>
        <polygon id="Path" fill="#DBDBDB" fill-rule="nonzero" points="100.33 62.535 100.33 52.505 106.42 52.505 106.42 53.185 101.1 53.185 101.1 57.145 105.64 57.145 105.64 57.825 101.1 57.825 101.1 61.865 106.42 61.865 106.42 62.545 100.33 62.545"></polygon>
        <path d="M113.65,62.615 C112.16,62.615 111.23,62.205 110.31,61.295 L110.85,60.755 C111.75,61.655 112.48,61.935 113.69,61.935 C115.27,61.935 116.27,61.175 116.27,59.865 C116.27,59.275 116.09,58.785 115.72,58.455 C115.35,58.145 115.09,58.045 114.27,57.915 L113.1,57.735 C112.34,57.625 111.73,57.365 111.31,57.005 C110.77,56.555 110.52,55.935 110.52,55.165 C110.52,53.485 111.72,52.415 113.63,52.415 C114.87,52.415 115.66,52.755 116.52,53.495 L116.03,53.985 C115.41,53.435 114.79,53.055 113.59,53.055 C112.14,53.055 111.27,53.855 111.27,55.125 C111.27,55.705 111.44,56.135 111.79,56.435 C112.14,56.735 112.72,56.975 113.28,57.055 L114.36,57.225 C115.3,57.365 115.73,57.535 116.15,57.885 C116.7,58.335 117.02,59.025 117.02,59.825 C117.03,61.535 115.74,62.615 113.65,62.615 Z" id="Path" fill="#DBDBDB" fill-rule="nonzero"></path>
        <path d="M127.71,62.535 L126.84,60.095 L122.16,60.095 L121.29,62.535 L120.47,62.535 L124.16,52.505 L124.84,52.505 L128.53,62.535 L127.71,62.535 Z M124.5,53.515 L122.4,59.415 L126.6,59.415 L124.5,53.515 Z" id="Shape" fill="#DBDBDB" fill-rule="nonzero"></path>
        <path d="M138.59,62.535 L136.2,57.915 L133.44,57.915 L133.44,62.535 L132.68,62.535 L132.68,52.505 L136.5,52.505 C138.13,52.505 139.37,53.445 139.37,55.195 C139.37,56.685 138.47,57.655 137.06,57.895 L139.48,62.525 L138.59,62.525 L138.59,62.535 Z M136.4,53.175 L133.44,53.175 L133.44,57.235 L136.4,57.235 C137.68,57.235 138.61,56.585 138.61,55.205 C138.61,53.825 137.68,53.175 136.4,53.175 Z" id="Shape" fill="#DBDBDB" fill-rule="nonzero"></path>
        <path d="M150.24,62.535 L147.85,57.915 L145.09,57.915 L145.09,62.535 L144.33,62.535 L144.33,52.505 L148.15,52.505 C149.78,52.505 151.02,53.445 151.02,55.195 C151.02,56.685 150.12,57.655 148.71,57.895 L151.13,62.525 L150.24,62.525 L150.24,62.535 Z M148.04,53.175 L145.08,53.175 L145.08,57.235 L148.04,57.235 C149.32,57.235 150.25,56.585 150.25,55.205 C150.25,53.825 149.32,53.175 148.04,53.175 Z" id="Shape" fill="#DBDBDB" fill-rule="nonzero"></path>
        <path d="M161.52,61.585 C160.86,62.245 159.96,62.615 159.01,62.615 C158.07,62.615 157.16,62.245 156.5,61.585 C155.58,60.665 155.57,59.785 155.57,57.515 C155.57,55.245 155.58,54.365 156.5,53.445 C157.16,52.785 158.06,52.415 159.01,52.415 C159.95,52.415 160.85,52.785 161.52,53.445 C162.44,54.365 162.45,55.245 162.45,57.515 C162.45,59.785 162.43,60.675 161.52,61.585 Z M160.91,53.865 C160.4,53.355 159.73,53.095 159.01,53.095 C158.29,53.095 157.62,53.365 157.11,53.865 C156.39,54.585 156.33,55.355 156.33,57.515 C156.33,59.665 156.39,60.445 157.11,61.165 C157.62,61.675 158.29,61.935 159.01,61.935 C159.73,61.935 160.4,61.665 160.91,61.165 C161.63,60.445 161.69,59.675 161.69,57.515 C161.69,55.365 161.63,54.585 160.91,53.865 Z" id="Shape" fill="#DBDBDB" fill-rule="nonzero"></path>
        <polygon id="Path" fill="#DBDBDB" fill-rule="nonzero" points="167.54 62.535 167.54 52.505 168.3 52.505 168.3 61.855 173.62 61.855 173.62 62.535 167.54 62.535"></polygon>
        <polygon id="Path" fill="#DBDBDB" fill-rule="nonzero" points="177.99 62.535 177.99 52.505 178.75 52.505 178.75 61.855 184.07 61.855 184.07 62.535 177.99 62.535"></polygon>
        <path d="M193.43,61.585 C192.77,62.245 191.87,62.615 190.92,62.615 C189.98,62.615 189.07,62.245 188.41,61.585 C187.49,60.665 187.48,59.785 187.48,57.515 C187.48,55.245 187.49,54.365 188.41,53.445 C189.07,52.785 189.97,52.415 190.92,52.415 C191.86,52.415 192.76,52.785 193.43,53.445 C194.35,54.365 194.36,55.245 194.36,57.515 C194.35,59.785 194.34,60.675 193.43,61.585 Z M192.82,53.865 C192.31,53.355 191.64,53.095 190.92,53.095 C190.2,53.095 189.53,53.365 189.02,53.865 C188.3,54.585 188.24,55.355 188.24,57.515 C188.24,59.665 188.3,60.445 189.02,61.165 C189.53,61.675 190.2,61.935 190.92,61.935 C191.64,61.935 192.31,61.665 192.82,61.165 C193.54,60.445 193.6,59.675 193.6,57.515 C193.6,55.365 193.54,54.585 192.82,53.865 Z" id="Shape" fill="#DBDBDB" fill-rule="nonzero"></path>
        <path d="M211.31,61.615 C210.72,62.205 209.85,62.535 208.8,62.535 L205.43,62.535 L205.43,52.505 L208.8,52.505 C209.84,52.505 210.72,52.825 211.31,53.425 C212.32,54.435 212.28,56.035 212.28,57.385 C212.28,58.725 212.32,60.605 211.31,61.615 Z M210.77,53.955 C210.19,53.365 209.42,53.185 208.62,53.185 L206.2,53.185 L206.2,61.865 L208.62,61.865 C209.42,61.865 210.2,61.685 210.77,61.095 C211.57,60.275 211.52,58.505 211.52,57.395 C211.52,56.265 211.58,54.775 210.77,53.955 Z" id="Shape" fill="#DBDBDB" fill-rule="nonzero"></path>
        <polygon id="Path" fill="#DBDBDB" fill-rule="nonzero" points="217.38 62.535 217.38 52.505 223.46 52.505 223.46 53.185 218.14 53.185 218.14 57.145 222.68 57.145 222.68 57.825 218.14 57.825 218.14 61.865 223.46 61.865 223.46 62.545 217.38 62.545"></polygon>
        <polygon id="Path" fill="#DBDBDB" fill-rule="nonzero" points="94.94 79.425 89.15 70.705 89.15 79.425 88.39 79.425 88.39 69.395 89.15 69.395 94.94 78.085 94.94 69.395 95.7 69.395 95.7 79.425"></polygon>
        <polygon id="Path" fill="#DBDBDB" fill-rule="nonzero" points="100.49 79.425 100.49 69.395 106.57 69.395 106.57 70.075 101.25 70.075 101.25 74.035 105.79 74.035 105.79 74.715 101.25 74.715 101.25 78.755 106.57 78.755 106.57 79.435 100.49 79.435"></polygon>
        <path d="M116.27,78.355 C115.61,79.085 114.65,79.505 113.64,79.505 C112.7,79.505 111.79,79.135 111.13,78.475 C110.22,77.555 110.2,76.675 110.2,74.405 C110.2,72.135 110.21,71.255 111.13,70.335 C111.79,69.675 112.69,69.305 113.64,69.305 C115.4,69.305 116.75,70.455 117.06,72.235 L116.3,72.235 C116,70.855 114.99,69.985 113.64,69.985 C112.92,69.985 112.25,70.255 111.74,70.755 C111.02,71.475 110.96,72.245 110.96,74.405 C110.96,76.555 111.02,77.335 111.74,78.055 C112.25,78.565 112.92,78.825 113.64,78.825 C114.43,78.825 115.2,78.485 115.72,77.855 C116.16,77.315 116.33,76.725 116.33,75.865 L116.33,74.965 L113.64,74.965 L113.64,74.285 L117.09,74.285 L117.09,75.915 C117.09,76.975 116.86,77.725 116.27,78.355 Z" id="Path" fill="#DBDBDB" fill-rule="nonzero"></path>
        <path d="M127,78.485 C126.34,79.145 125.44,79.515 124.49,79.515 C123.55,79.515 122.64,79.145 121.98,78.485 C121.06,77.565 121.05,76.685 121.05,74.415 C121.05,72.145 121.06,71.265 121.98,70.345 C122.64,69.685 123.54,69.315 124.49,69.315 C125.43,69.315 126.33,69.685 127,70.345 C127.92,71.265 127.93,72.145 127.93,74.415 C127.93,76.685 127.92,77.575 127,78.485 Z M126.4,70.765 C125.89,70.255 125.22,69.995 124.5,69.995 C123.78,69.995 123.11,70.265 122.6,70.765 C121.88,71.485 121.82,72.255 121.82,74.415 C121.82,76.565 121.88,77.345 122.6,78.065 C123.11,78.575 123.78,78.835 124.5,78.835 C125.22,78.835 125.89,78.565 126.4,78.065 C127.12,77.345 127.18,76.575 127.18,74.415 C127.17,72.265 127.12,71.485 126.4,70.765 Z" id="Shape" fill="#DBDBDB" fill-rule="nonzero"></path>
        <path d="M135.37,79.515 C134.43,79.515 133.52,79.145 132.86,78.485 C131.95,77.565 131.93,76.685 131.93,74.415 C131.93,72.145 131.94,71.265 132.86,70.345 C133.52,69.685 134.42,69.315 135.37,69.315 C137.16,69.315 138.45,70.425 138.78,72.245 L138,72.245 C137.71,70.865 136.72,69.995 135.37,69.995 C134.65,69.995 133.98,70.265 133.47,70.765 C132.75,71.485 132.69,72.255 132.69,74.415 C132.69,76.565 132.75,77.345 133.47,78.065 C133.98,78.575 134.65,78.835 135.37,78.835 C136.72,78.835 137.74,77.965 138.03,76.585 L138.78,76.585 C138.45,78.405 137.13,79.515 135.37,79.515 Z" id="Path" fill="#DBDBDB" fill-rule="nonzero"></path>
        <polygon id="Path" fill="#DBDBDB" fill-rule="nonzero" points="143.08 79.425 143.08 69.395 143.84 69.395 143.84 79.425"></polygon>
        <path d="M154.18,78.485 C153.52,79.145 152.62,79.515 151.67,79.515 C150.73,79.515 149.82,79.145 149.16,78.485 C148.24,77.565 148.23,76.685 148.23,74.415 C148.23,72.145 148.24,71.265 149.16,70.345 C149.82,69.685 150.72,69.315 151.67,69.315 C152.61,69.315 153.51,69.685 154.18,70.345 C155.1,71.265 155.11,72.145 155.11,74.415 C155.11,76.685 155.1,77.575 154.18,78.485 Z M153.57,70.765 C153.06,70.255 152.39,69.995 151.67,69.995 C150.95,69.995 150.28,70.265 149.77,70.765 C149.05,71.485 148.99,72.255 148.99,74.415 C148.99,76.565 149.05,77.345 149.77,78.065 C150.28,78.575 150.95,78.835 151.67,78.835 C152.39,78.835 153.06,78.565 153.57,78.065 C154.29,77.345 154.35,76.575 154.35,74.415 C154.35,72.265 154.29,71.485 153.57,70.765 Z" id="Shape" fill="#DBDBDB" fill-rule="nonzero"></path>
        <path d="M162.01,79.515 C160.52,79.515 159.59,79.105 158.67,78.195 L159.21,77.655 C160.11,78.555 160.84,78.835 162.05,78.835 C163.63,78.835 164.63,78.075 164.63,76.765 C164.63,76.175 164.45,75.685 164.08,75.355 C163.71,75.045 163.45,74.945 162.63,74.815 L161.46,74.635 C160.7,74.525 160.09,74.265 159.67,73.905 C159.13,73.455 158.88,72.835 158.88,72.065 C158.88,70.385 160.08,69.315 161.99,69.315 C163.23,69.315 164.02,69.655 164.88,70.395 L164.39,70.885 C163.77,70.335 163.15,69.955 161.95,69.955 C160.5,69.955 159.63,70.755 159.63,72.025 C159.63,72.605 159.8,73.035 160.15,73.335 C160.5,73.635 161.08,73.875 161.64,73.955 L162.72,74.125 C163.66,74.265 164.09,74.435 164.51,74.785 C165.06,75.235 165.38,75.925 165.38,76.725 C165.39,78.425 164.09,79.515 162.01,79.515 Z" id="Path" fill="#DBDBDB" fill-rule="nonzero"></path>
        <polygon id="Path" fill="#DBDBDB" fill-rule="nonzero" points="174.74 79.425 174.74 69.395 175.5 69.395 175.5 78.745 180.82 78.745 180.82 79.425 174.74 79.425"></polygon>
        <path d="M189.47,78.485 C188.81,79.145 187.91,79.515 186.96,79.515 C186.02,79.515 185.11,79.145 184.45,78.485 C183.54,77.565 183.52,76.685 183.52,74.415 C183.52,72.145 183.53,71.265 184.45,70.345 C185.11,69.685 186.01,69.315 186.96,69.315 C187.9,69.315 188.8,69.685 189.47,70.345 C190.38,71.265 190.4,72.145 190.4,74.415 C190.4,76.685 190.38,77.575 189.47,78.485 Z M188.86,70.765 C188.35,70.255 187.68,69.995 186.96,69.995 C186.24,69.995 185.57,70.265 185.06,70.765 C184.34,71.485 184.28,72.255 184.28,74.415 C184.28,76.565 184.34,77.345 185.06,78.065 C185.57,78.575 186.24,78.835 186.96,78.835 C187.68,78.835 188.35,78.565 188.86,78.065 C189.58,77.345 189.64,76.575 189.64,74.415 C189.64,72.265 189.58,71.485 188.86,70.765 Z" id="Shape" fill="#DBDBDB" fill-rule="nonzero"></path>
        <polygon id="Path" fill="#DBDBDB" fill-rule="nonzero" points="202.45 79.425 202.45 71.155 199.41 78.015 198.65 78.015 195.55 71.155 195.55 79.425 194.79 79.425 194.79 69.395 195.55 69.395 199.04 77.125 202.45 69.395 203.21 69.395 203.21 79.425"></polygon>
        <path d="M213.9,79.425 L213.03,76.985 L208.35,76.985 L207.48,79.425 L206.66,79.425 L210.35,69.395 L211.03,69.395 L214.72,79.425 L213.9,79.425 Z M210.69,70.415 L208.59,76.315 L212.79,76.315 L210.69,70.415 Z" id="Shape" fill="#DBDBDB" fill-rule="nonzero"></path>
        <path d="M220.67,79.515 C219.18,79.515 218.25,79.105 217.33,78.195 L217.87,77.655 C218.77,78.555 219.5,78.835 220.71,78.835 C222.29,78.835 223.29,78.075 223.29,76.765 C223.29,76.175 223.11,75.685 222.74,75.355 C222.37,75.045 222.11,74.945 221.29,74.815 L220.12,74.635 C219.36,74.525 218.75,74.265 218.33,73.905 C217.79,73.455 217.54,72.835 217.54,72.065 C217.54,70.385 218.74,69.315 220.65,69.315 C221.89,69.315 222.68,69.655 223.54,70.395 L223.05,70.885 C222.43,70.335 221.81,69.955 220.61,69.955 C219.16,69.955 218.29,70.755 218.29,72.025 C218.29,72.605 218.46,73.035 218.81,73.335 C219.16,73.635 219.74,73.875 220.3,73.955 L221.38,74.125 C222.32,74.265 222.75,74.435 223.17,74.785 C223.72,75.235 224.04,75.925 224.04,76.725 C224.05,78.425 222.76,79.515 220.67,79.515 Z" id="Path" fill="#DBDBDB" fill-rule="nonzero"></path>
        <path d="M130.67,33.465 C130.67,34.935 130.46,36.425 130.03,37.935 C129.6,39.445 128.99,40.815 128.18,42.045 C127.38,43.275 126.4,44.295 125.26,45.115 C124.12,45.925 122.81,46.375 121.35,46.455 L89.57,46.455 C88.85,46.455 88.25,46.175 87.75,45.625 C87.25,45.065 87,44.395 87,43.605 L87,23.365 C87,22.575 87.25,21.895 87.75,21.345 C88.25,20.785 88.86,20.515 89.57,20.515 L120.81,20.515 C122.35,20.515 123.72,20.915 124.94,21.705 C126.15,22.495 127.19,23.525 128.05,24.775 C128.91,26.025 129.56,27.415 130.01,28.945 C130.45,30.445 130.67,31.965 130.67,33.465 Z M92.15,26.205 L92.15,40.735 L119.69,40.735 C120.9,40.735 121.9,40.485 122.69,39.995 C123.48,39.495 124.09,38.895 124.54,38.175 C124.99,37.465 125.29,36.675 125.45,35.825 C125.61,34.975 125.69,34.185 125.69,33.475 C125.69,32.765 125.61,31.975 125.45,31.125 C125.29,30.275 124.99,29.485 124.54,28.775 C124.09,28.065 123.48,27.455 122.69,26.955 C121.9,26.455 120.9,26.215 119.69,26.215 L92.15,26.215 L92.15,26.205 Z" id="Shape" fill="#DBDBDB" fill-rule="nonzero"></path>
        <path d="M172.29,31.115 C172.13,30.265 171.83,29.475 171.38,28.765 C170.93,28.055 170.32,27.445 169.53,26.945 C168.74,26.445 167.74,26.205 166.53,26.205 L147.18,26.205 C145.93,26.205 144.92,26.455 144.15,26.945 C143.38,27.445 142.77,28.045 142.33,28.765 C141.88,29.475 141.58,30.265 141.42,31.115 C141.26,31.965 141.18,32.755 141.18,33.465 L141.18,43.585 C141.18,44.375 140.93,45.055 140.43,45.605 C139.93,46.165 139.32,46.435 138.61,46.435 C137.89,46.435 137.29,46.155 136.79,45.605 C136.29,45.045 136.04,44.375 136.04,43.585 L136.04,33.465 C136.04,31.955 136.26,30.435 136.71,28.915 C137.16,27.385 137.81,25.995 138.67,24.745 C139.53,23.495 140.56,22.475 141.78,21.675 C142.99,20.885 144.37,20.485 145.91,20.485 L168.36,20.485 C169.82,20.565 171.13,21.015 172.27,21.825 C173.41,22.635 174.39,23.665 175.19,24.895 C175.99,26.125 176.61,27.495 177.04,29.005 C177.47,30.515 177.68,32.005 177.68,33.475 L177.68,43.595 C177.68,44.385 177.43,45.065 176.93,45.615 C176.43,46.175 175.82,46.445 175.11,46.445 C174.4,46.445 173.79,46.165 173.29,45.615 C172.79,45.055 172.54,44.385 172.54,43.595 L172.54,33.475 C172.53,32.755 172.45,31.975 172.29,31.115 Z" id="Path" fill="#DBDBDB" fill-rule="nonzero"></path>
        <path d="M187.53,45.825 C186.64,45.405 185.86,44.845 185.2,44.125 C184.54,43.415 184.01,42.575 183.62,41.625 C183.23,40.675 183.03,39.645 183.03,38.525 L183.03,23.345 C183.03,22.555 183.28,21.875 183.78,21.325 C184.28,20.765 184.89,20.495 185.6,20.495 C186.28,20.495 186.88,20.775 187.39,21.325 C187.91,21.885 188.17,22.555 188.17,23.345 L188.17,38.525 C188.17,39.125 188.38,39.635 188.79,40.075 C189.2,40.515 189.67,40.725 190.21,40.725 L222.36,40.725 C223.07,40.725 223.68,41.005 224.18,41.555 C224.68,42.115 224.93,42.785 224.93,43.575 C224.93,44.365 224.68,45.045 224.18,45.595 C223.68,46.155 223.07,46.425 222.36,46.425 L190.37,46.425 C189.37,46.445 188.42,46.245 187.53,45.825 Z" id="Path" fill="#DBDBDB" fill-rule="nonzero"></path>
    </g>
</svg>